# xmcd
#
# Track frame offsets: 
#        150
#        18318
#        34229
#        53266
#        74836
#        93481
#        109420
#        124994
#        147018
#        178093
#        203614
#        222817
#        239010
#        256820
#        273599
#        288674
#        306437
#        313472
#
# Disc length: 4393 seconds
#
# Revision: 0
# Processed by: cddbd v1.5.2PL0 Copyright (c) Steve Scherf et al.
# Submitted via: ExactAudioCopy v1.1
#
DISCID=1f112712
DTITLE=Various Artist - Closer To The Music IV
DYEAR=2011
DGENRE=Jazz and Blue
TTITLE0=Allan Taylor - Let the Music Flow
TTITLE1=Allan Taylor - Midnight Call
TTITLE2=McKinley Black - My Diamond Mine
TTITLE3=McKinley Black - All I Need
TTITLE4=Paul Stephenson - Rainy Day Man
TTITLE5=Paul Stephenson - Back Where You Belong
TTITLE6=Eugene Ruffolo - Baby It's Cold Outside
TTITLE7=David Munyon - I Want Your love
TTITLE8=David Munyon - Hollywood Town
TTITLE9=Paul O'Brien and Uli Kringler Trio - Madrona
TTITLE10=Paul O'Brien - Without a Trace
TTITLE11=Katja Werker - Uber Sieben Brucken Musst Du Gehn
TTITLE12=Zebra Sommerwind - Es Sass Ein Klein Wild Vogelein
TTITLE13=Michael Schlierf - Hickory
TTITLE14=Ralf Illenberger - Light Wave
TTITLE15=Ralf Illenberger - Falling Down
TTITLE16=Blue Chamber Quartet - Children's Song 16
TTITLE17=Blue Chamber Quartet - Children's Song 6
EXTD=
EXTT0=
EXTT1=
EXTT2=
EXTT3=
EXTT4=
EXTT5=
EXTT6=
EXTT7=
EXTT8=
EXTT9=
EXTT10=
EXTT11=
EXTT12=
EXTT13=
EXTT14=
EXTT15=
EXTT16=
EXTT17=
PLAYORDER=
